<svg id="Calque_1" data-name="Calque 1" xmlns="http://www.w3.org/2000/svg" viewBox="0 0 831.28 853.13"><defs><style>.cls-1{fill:#f2f2f2;}.cls-2{fill:#b8b8b8;}.cls-3{fill:#949494;}.cls-4{fill:#bdbdbd;}.cls-5{fill:#a4a4a4;}.cls-6{fill:#a3a3a3;}.cls-7{fill:#c4c4c4;}.cls-8{fill:#b5b5b5;}.cls-9{fill:#8a8a8a;}.cls-10{fill:#afafaf;}.cls-11{fill:#b3b3b3;}.cls-12{fill:#959595;}.cls-13{fill:#2a2a2a;}.cls-14{fill:#242424;}.cls-15{fill:#1e1e1e;}.cls-16{fill:#a6a6a6;}.cls-17{fill:#adadad;}.cls-18{fill:#c8c8c8;}.cls-19{fill:#282828;}.cls-20{fill:#323232;}.cls-21{fill:#a1a1a1;}.cls-22{fill:#999;}.cls-23{fill:#919191;}.cls-24{fill:#474747;}.cls-25{fill:#d7d7d7;}.cls-26{fill:#e0e0e0;}.cls-27{fill:#a0a0a0;}.cls-28{fill:#e6e6e6;}</style></defs><circle class="cls-1" cx="419.92" cy="436.26" r="390.55"/><path class="cls-2" d="M269,690c-52.44-2.24-98.5,18.55-118.32,29.12a390.53,390.53,0,0,0,556.05-17.82c-7.38-3.76-15.12-7.23-22.42-11.3C662.62,678,339,693,269,690Z"/><path class="cls-3" d="M577.09,673.18c-14.63,4.48-10.69,17.35-12.51,27.63-.37,2.11-1,4.17-1.52,6.26-.09-1.65-.18-3.3-.29-5.2l-3.3-2.26c-2.3-17.32-2.3-17.32-18.45-12.58-.32.09-.64.18-1,.25l-80.91,18,1.19,3.69-7.08,2.71,4.88,10.87,2.33.14v18.48a17.29,17.29,0,0,1,1.69.62c.59.25,1.13.61.51.26L459.08,749,438,751.07l-3.85,0H418.88l-3.85-.06c-5-.68-10-2.19-14.9-1.84-8.51.59-11.72-2.41-11.32-11.05.23-5.08.1-12.92-2.92-14.92-12.4-8.22-26-14.68-39.11-21.78-1.2-.64-2.43-1.22-4.86-2.43a21.83,21.83,0,0,1,3.45-.85c28.9.6,58,3.42,86.65,1.28C466,696.94,499.6,690.22,533.33,685c2.52-.39,4.67-3.24,7.21-5.12L536,674.51c6.18-5.81,13.74-10.5,17.78-17.29C559.22,648,562,637.15,566,627c3.06-27.69-12.56-41.28-37.55-47.55,4-6.66,7.41-12.23,9.68-16l9.58,1.65c.22-5.29,2.63-13.44.22-15.29-5.39-4.13-13.18-5.12-20-7.4-.44,1.29-.87,2.58-1.31,3.86l10.67,8.53-55.17,53.28c-.34-.41-.86-1.23-1-1.17-15.3,6.73-30.57,13.52-47.13,20.89l-3.39-10.65,3.75-1c-2.73-3-7.58-6.22-8.87-10.48-1.51-4.94.56-10.86.24-16.3-.31-5.18-1.71-10.28-2.63-15.42l-1.06.37V523.82c-5.3-8.63-11.83-14.67-12.28-21.13-.59-8.59,3.61-17.5,5.62-26.3.49-2.14,1.14-4.64.48-6.54-1.93-5.62-5.61-10.83-6.56-16.54-2.35-13.95-.16-26.73,14.6-33.89l-5-6.36,33.48-4.67-.12-3.26-26.13-2.66c5.91-20.65,26.22-22.45,41.17-30,1-4.78,1.74-8.59,2.7-13.35,8.06,2.75,16.37,3.74,22.24,8,8.14,6,22.42,7.5,30.76,1.47,10.57-7.65,21.67-14.58,32.55-21.82l1.21,2.26,10-12.37c-.15,1.5-.48-.14.19-1.05,3.13-4.23,6-11,10-11.74,6.38-1.16,13.5,1.7,20.3,2.86q.35-3.15.68-6.3c3.15,0,7.88-1.32,9.17.23,4.8,5.75,8.46,12.44,12.91,19.34l4.81,1.57c1.13,6.83,2.24,13.64,3.91,23.77L646.07,358c.29.85,1.07,2.25.81,2.48a72.53,72.53,0,0,1-8.51,6.88c-4.79,3.09-9.84,5.8-14.78,8.66l.83,1.75,17-5.5c-2.47,7.06-5.21,12.45-6.19,18.15-3.72,21.64-7.27,43.34-10.11,65.12-3.44,26.31-6.09,52.74-9.11,79.11-1.32,11.53-2.69,23.06-4,34.59,3.34,28.79,6.29,36.37-18,47.11-3,13-6.08,26.12-9.57,41.13l-7,4.1L572.12,658l-3.51,1.94,3.08,8.38h9.43Zm-67-160.65c.18-15.73-11-28.29-25.36-28.4C469.82,484,457.2,498.28,457,515.54c-.24,16.4,10.44,30,23.68,30.07C496.11,545.73,509.89,530.26,510.1,512.53Zm25.82-56.87c-1.63-5.16-2.35-10.85-5-15.37-11.28-19-51.24-30.54-77.54-22.48-3.32,1-7.49,4.78-8,7.85-.6,3.33,2.56,7.35,3.95,10.75C487.18,428.18,513.82,434.8,535.92,455.66ZM397.28,742.87c-2.37-1.44-2.61-1.58-2.87-1.72l-.81.9Z"/><path class="cls-4" d="M291,725.11c-12.73-2.59-22.15-17.61-22-35.07l14.37-13.3c1.05.61-1.12-.45-3.06-1.82C266.69,665.31,251.8,657,240,645.52c-8.14-7.91-13-19.82-17.49-30.7-4.41-10.7-6.11-22.49-9.75-33.55-2.37-7.18-10.34-13.56-1.23-21.45.92-.8,1-4.24.09-5.21-5.46-5.87-4.52-12.3-4.58-19.76-.1-12.74-4.82-25.38-5.74-38.19-2-28.14-3.08-56.36-4.21-84.57-.44-11.18-.08-22.41,0-33.62,0-3.81.35-7.62.67-14L197,363h0l9,4L233.93,379c-2.49-8.44-3.82-14.45-6-20.12-10.07-25.86,1.06-45.64,28-48.86,14-1.67,28.59-5.68,42-3.4,27.86,4.73,55.17,12.77,82.6,19.87,5.49,1.42,10.5,4.7,16.91,7.66-7.31,13.72-15,25.31-19.87,38-6.66,17.22-24,10.58-34.42,16.68L358,394.67c-.4,1.2-.79,2.4-1.19,3.6l-14,1.2.06,1.49L375,403l22,2h1c-11.07.47-22.2.35-33.19,1.59-12.34,1.38-24.54,4-34.76,5.72-1.24,10.39-2,16.87-2.83,23.76l23.86-3.41L346,435.92c-28.17,9.13-45.32,23.38-41.25,31.08l27.15-13.07L335,453l.05,0,4.92-1,2.77-.2,2.69.64c-31.38,10.54-46.4,21.63-41.78,30.84l4.4.52c1.72,7.79,4.67,14.86,4.6,21.9-.31,33.3-1.5,66.59-2.19,99.89a19.17,19.17,0,0,0,1.92,9.36c8,14.32,4.67,26.56-7,31.24-3.81,3.06-6.32,4.47-7.95,6.56-1.43,1.83-3.2,5.9-2.57,6.47,8.36,7.55,16.43,15.83,26,21.51,8.45,5,18.7,7,29.11,10.62L339,693l-57.73-8.54,22.19,33.14-6,3.81-5.4-1.69C291.69,721.75,291.33,723.43,291,725.11ZM394.78,334.72c-10.35-3.37-16.6-5.33-22.79-7.43-31.13-10.57-62.31-18.76-95.83-11.57-16.33,3.5-22.28,8.71-21.19,24.8.55,8.18,18.52,25.41,30.5,26.74,28.89,3.2,58.78,12.25,85.75-5.92C380,355.46,385.74,345.18,394.78,334.72Z"/><path class="cls-2" d="M398,405h-1l-15.29-4.16-4.76-8,4.17-7.41,7.44,1.4c.85-4.12,1.64-8,1.77-8.58,6.76-5.15,12.51-7.78,15.62-12.25,8-11.42,14.78-23.65,22-35.49l11.94-10.79c-1.57-5.46-3.7-12.91-5.83-20.36l-2.18.47-8.31-20c8.54-7.82,22.71-9.41,36.52-12.13-13-1.61-25.95-1.89-38.66-3.86-7.51-1.16-16.83-3-17.08-13.47-.47-20-.14-40.1-.14-59.05L464,170.92h1l5-1,3-1h6l11-4h5l34-16,1.06,0-.06,0,1.07,2,0-.06c.33.69.67,1.37,1,2.06l0,0,.84,1.93.21,1.92v13.39L528.38,157v63.52l5.67-3.56c-.74,1.49-1.2,3.22-2.26,4.41-2,2.26-4.39,4.2-6.62,6.27-.75-3-2-6-2.17-9.1-.6-11.3-.58-22.63-1.33-33.91-.32-4.78-2-9.47-3.11-14.48-9.13,2.16-17.46,4-25.74,6.1-12.41,3.11-24.66,8.34-37.19,9.09-19.81,1.19-27.5,8.43-28.91,28.26-1.33,18.78,4.67,33.94,19.11,48.92,4.06,0,10.48.06,16.91,0,19.44-.21,38.89-.15,58.3-1,4.07-.17,8-3.64,12-5.59-1.32,3.94-2.65,7.88-5.31,15.77l47.83-16.64L572,245c-5.8.34-11.08-.14-15.91,1.1-7.82,2-15.35,5.15-23,7.81,2-3.23,3.34-8.15,6.21-9.36,6.16-2.59,13.3-2.73,19.68-4.94a14.38,14.38,0,0,0,7.36-7.08c.66-1.44-1.88-5.78-3.95-6.8-8.9-4.34-18.15-7.93-27.28-11.79,2.22,0,4.88-.77,6.6.16,15.88,8.64,32.19,16.67,47.2,26.64,16.71,11.1,32.18,24,48.19,36.18-1.69,0-3.83.64-5-.15-11.91-7.86-29.79-9.16-36.84-2.83,1,5.45,1.85,10.57,2.77,15.84l10.49,4.62c2.44-5.08,4.36-9.08,6.54-13.64,25.8,20.69,18.62,51.25,26.77,76.88l4.3.31-17.42,7.38c-1.67-10.13-2.78-16.94-3.91-23.77L619.93,340c-4.45-6.9-8.11-13.59-12.91-19.34-1.29-1.55-6-.23-9.17-.23q-.33,3.15-.68,6.3c-6.8-1.16-13.92-4-20.3-2.86-3.92.72-6.82,7.51-10,11.74-.67.91-.34,2.55-.19,1.05l-10,12.37-1.21-2.26C544.65,354,533.55,361,523,368.6c-8.34,6-22.62,4.49-30.76-1.47-5.87-4.3-14.18-5.29-22.24-8-1,4.76-1.73,8.57-2.7,13.35-14.95,7.58-35.26,9.38-41.17,30l26.13,2.66.12,3.26-33.48,4.67,5,6.36c-14.76,7.16-16.95,19.94-14.6,33.89.95,5.71,4.63,10.92,6.56,16.54.66,1.9,0,4.4-.48,6.54-2,8.8-6.21,17.71-5.62,26.3.45,6.46,7,12.5,12.28,21.13v50.46l1.06-.37c.92,5.14,2.32,10.24,2.63,15.42.32,5.44-1.75,11.36-.24,16.3,1.29,4.26,6.14,7.44,8.87,10.48l-3.75,1L434,627.81c16.56-7.37,31.83-14.16,47.13-20.89.14-.06.66.76,1,1.17V608l-1.08.89-.08.08-.82.74a2.79,2.79,0,0,1-.89.32L478,611h0l-1,.71-.28.27a4.62,4.62,0,0,0-.58.59l-1,.46-1,.82a1.15,1.15,0,0,1-.65.22l-1.41,1,.08-.06-1,.83a1,1,0,0,1-.61.2l-1.43,1,.06-.05-1,.79a1.91,1.91,0,0,1-.8.24L466,619l0,0-.87.73-2.8,1.33-1.15.64-.93.39-2.21.95,0,0c-.31.23-.62.46-.92.7l-1.8.4-2.3,1,.08-.09-1,.83a2.09,2.09,0,0,1-.88.2l-2.16,1,.06,0-2,.83-1.66.19-1.32.78a1.34,1.34,0,0,1-.75.22l-1.21.6-3,.41L425.06,632h-3c-4.46-1-8.89-2.07-13.37-3-7.21-1.45-14.55-2.08-15.66-12.07-2.72-24.58-5.95-49.1-9-73.64l-2.69.34-3-2.88c1-2.94,1.87-5.36,2.71-7.79,0-1.37,0-2.75-.07-4.13l.36-1,.69-1.12.28-1.83.7-1.28.3-1.7.89-1.12a.62.62,0,0,0,.05-.58,4,4,0,0,0-.35-.36c.09-1,.19-1.94.28-2.91.31-.68.61-1.35.92-2,0-1.31,0-2.62,0-3.92l-.9-1v-1l-11.1-24c-.86-9-1.71-17.95-2.74-28.7,2.28-.27,7-2.27,10.5-1,10.66,4,13.77-4.45,15.51-10.47.95-3.29-4.06-10-8.06-12.58-4.72-3-11.25-3.2-17.43-4.71,1.63-6.45,2.88-11.38,4.35-17.21l55.06-2.49c0-.94-.06-1.89-.1-2.83ZM484,173.92l-20.31,4.91,1.59,4L484,173.92l20.91-5-1.26-3.72Zm76.07,134.92c9.75-.48,23.28-16.89,26.71-31.42l4-2.82c-19.94-1.84-53.8,18.34-55.27,33.25L545,311.2c.29,1.9.55,3.68,1.09,7.21l10.31-1.84ZM536,323.77l-2.59-1.13-10.87,11.83c-2.07-3.46-3.39-5.65-6.07-10.11l-25.92,20,13.4,5.43,1.69,3.1c7-3.6,14.64-5.76,19.67-10.61S532.53,330.06,536,323.77Zm13.35-51.15c.53,1.37,1.06,2.74,1.6,4.11l66.21-14.09c-18.54-12.74-34.82,6.57-52.14,4.07C560.17,266,554.58,270.51,549.34,272.62ZM526,154.19l.43.76,1.62-.9-.43-.76Z"/><path class="cls-5" d="M381,533c-.84,2.43-1.69,4.85-2.71,7.79l3,2.88,2.69-.34c3,24.54,6.25,49.06,9,73.64,1.11,10,8.45,10.62,15.66,12.07,4.48.9,8.91,2,13.37,3h-7l-16.18-1.86-6.85-.26-3.92.08-1.88.15-2.2,1.83c2.86,2.69,5.25,6.47,8.63,7.91,26.36,11.21,51.76,6.35,77.93-6.5,5.75,7.16,11.35,14.46,17.32,21.46,6.24,7.32,12.83,14.34,19.26,21.49l14.91-.21a1.27,1.27,0,0,1,.74-.13l2.26-1-.08,0,2-.74a2.09,2.09,0,0,1,.88-.26l2.17-1-.06,0,2-.81a1.18,1.18,0,0,1,.65-.22L534,671h0l.87-.64.91-.41,1.12-.69,3.69-2.34,1.39-1L542,666l1.08-1,0,0,1-.89,4.67-4.17,1.3-1.27c.47-.59.94-1.17,1.4-1.76a3.52,3.52,0,0,0,.7-.69l.15-.18.83-.95.07-.07.89-1.16,1.33-2,.7-.84,0,0,2-3v0c.35-.63.69-1.27,1-1.9l0-.08c.27-.44.55-.88.83-1.31a1.74,1.74,0,0,1,.19-.75c.31-.61.63-1.22.94-1.84l.08-.1.79-1.32a1.66,1.66,0,0,1,.18-.75l.84-2.07.35-1,.63-1.19c.08-.59.16-1.17.25-1.76.22-.75.45-1.51.68-2.27a1.21,1.21,0,0,1,.14-.67c.3-1.06.61-2.12.92-3.18a1.83,1.83,0,0,1,0-.84c-3.94,10.15-6.74,21-12.22,30.22-4,6.79-11.6,11.48-17.78,17.29l4.58,5.37c-2.54,1.88-4.69,4.73-7.21,5.12C499.6,690.22,466,696.94,432,699.47c-28.69,2.14-57.75-.68-86.65-1.28a21.83,21.83,0,0,0-3.45.85c2.43,1.21,3.66,1.79,4.86,2.43,13.14,7.1,26.71,13.56,39.11,21.78,3,2,3.15,9.84,2.92,14.92-.4,8.64,2.81,11.64,11.32,11.05,4.9-.35,9.93,1.16,14.9,1.84-40.83,0-80.65-5.39-118.33-22.15-2.06-.92-3.82-2.52-5.72-3.8.35-1.68.71-3.36,1.13-5.35l5.4,1.69,6-3.81L281.29,684.5,339,693c1.34.61,2.68,1.72,4,1.75,29,.59,58,1.14,87,1.5,5.92.07,11.85-.63,17.78-1C435,689,422,684.9,409.26,680.06c-15.85-6-35.29-4.74-46-21-1.93-2.92,0-8.84,1.1-13.12.66-2.51,4.68-4.47,4.75-6.74.61-21.88.78-43.76.9-65.65,0-5.29.21-10.8-1.14-15.82C367,551,364.6,544.84,373,541ZM521.43,681.43l.55,1.06,3.9-2-.42-.88Z"/><path class="cls-6" d="M646.07,358l-4.3-.31c-8.15-25.63-1-56.19-26.77-76.88-2.18,4.56-4.1,8.56-6.54,13.64L598,289.8c-.92-5.27-1.81-10.39-2.77-15.84,7-6.33,24.93-5,36.84,2.83,1.18.79,3.32.14,5,.15h0l2.14-.13-.07,0q3,6,6.07,12.06l3.9,10.94c-7.82,17.16,1,33.54-1.06,53.8,4.37-4.1,5.1-5,6-5.61a14.88,14.88,0,0,1,3-1.08c0,.35-.07.71-.1,1.06l-10.93,19c0,9.37.12,18.59,0,27.81-.61,40.45-.79,80.93-2.2,121.35-.55,16,0,31.3,7.28,45.81,0,1.66,0,3.33,0,5-.32,2-.63,4-.94,6v0l-1,8c-5.15,28.86-18.37,53.13-41,72V646c-5.45,4.32-8.94,7.11-14.31,11.37L601,659,595,663c-.47-1.27-.94-2.55-2-5.48l-6,7.22,8-1.72-17.92,10.17,4-4.9h-9.43l-3.08-8.38,3.51-1.94,5.26,3.59,7-4.1c3.49-15,6.55-28.15,9.57-41.13,24.3-10.74,21.35-18.32,18-47.11,1.35-11.53,2.72-23.06,4-34.59,3-26.37,5.67-52.8,9.11-79.11,2.84-21.78,6.39-43.48,10.11-65.12,1-5.7,3.72-11.09,6.19-18.15l-17,5.5-.83-1.75c4.94-2.86,10-5.57,14.78-8.66a72.53,72.53,0,0,0,8.51-6.88C647.14,360.22,646.36,358.82,646.07,358ZM615.61,639.3l2,1.42,3.13-4.92L619,634.6Q617.27,636.94,615.61,639.3Zm13.32-21-1.43,2.11,3.73,2.34,1.2-1.67Zm15.49-22.89Z"/><path class="cls-7" d="M197,363l.77,1.53c-.32,6.36-.64,10.17-.67,14-.1,11.21-.46,22.44,0,33.62,1.13,28.21,2.17,56.43,4.21,84.57.92,12.81,5.64,25.45,5.74,38.19.06,7.46-.88,13.89,4.58,19.76.89,1,.83,4.41-.09,5.21-9.11,7.89-1.14,14.27,1.23,21.45,3.64,11.06,5.34,22.85,9.75,33.55,4.49,10.88,9.35,22.79,17.49,30.7,11.81,11.48,26.7,19.79,40.32,29.4,1.94,1.37,4.11,2.43,3.06,1.82L269,690c2.06-20.27-17.12-20.78-27.65-28.44-29.44-21.42-49.54-48.77-54-85-3-24.47-1.89-49.45-2.42-74.2q-1-48.66-1.77-97.33c-.24-16.54,0-33.1-.16-49.64,0-4.63-.49-9.25,0-13,1.18-81.9,51.06-119.19,124-135,0-16.17-1-31.39.45-46.36.69-7,6.22-13.49,9.55-20.21-10.4,16.69-7.93,35.25-7.8,53.48.05,7.42,0,14.84,0,25.89l-5.15-9a19.63,19.63,0,0,0-3.11,1c-20.67,11.22-42,21.42-61.79,34-21.25,13.47-37.51,32.12-43.48,57.42-3,12.76-2.79,26.31-6.12,38.95C187.08,352.23,187.88,358.59,197,363Zm-5.83,3.1-.18-.25-.13.27Z"/><path class="cls-8" d="M495,164.91h-5l-9,2c-39.17,5.41-78.28,5.83-116.64-.1l8.63-9.9,0-2-18.47-6.26.5-3.74,4.32-9.25-4.88-5.74-9.46,18-6.31,13.64c-2.18-.37-3.49-.5-4.75-.82-14.53-3.67-19.18.52-20.13,15.3-1.15,17.74,4.92,36.53-6.81,52.92l-3.55-8.78h6.63a24.56,24.56,0,0,0,.83-4.33c.08-13.95.34-27.92,0-41.86-.26-11.07-.86-21.87,13.88-24.19.6-.09,1.05-1.13,1.57-1.73l-2.12-.63q1.38-6.27,2.75-12.53c21.13-4.61,42.12-12.09,63.43-13.13,29.23-1.44,58.7,2,88.07,3.4,1.55.08,3.06,1.12,4.58,1.71l-15.32,18,6,2.84,17.73-11.65q-3.74-4.59-7.48-9.16l22,6a46,46,0,0,0-6,3.65c-5.18,4.27-10.41,8.52-15.17,13.23-2.58,2.57-4.24,6.07-6.32,9.15,3.23.82,7.42,3.32,9.5,2.13,5-2.84,10.06-6.73,13-11.49s3.42-11.05,5-16.67l21.08,11.9-.14.25Q511,155,495,164.91Zm-67.16-28.53q-.58-2.41-1.19-4.83H392.41c-3,8.52-6.73,19-10.93,30.79H414l2.86-8.46-7.06-4.69,3.38-6.28,1.31,1.77Zm36.35-1.6c-9.74,6.74-18.17,12.27-26.18,18.36-1.81,1.38-2.13,4.72-3.45,7.93C455.08,163.54,457.51,148.34,464.22,134.78ZM425,144.35l3.24,4.25,21.55-13.95c-5.49-2.27-9.4-5-10.49-4.14C434.12,134.58,429.7,139.64,425,144.35Zm2.13,15.43,1.71-1.75-5.44-7.78c-.25,4.2-.9,6-.27,7C423.92,158.43,425.76,159,427.14,159.78Z"/><path class="cls-9" d="M459.08,749l3.59-6.91c.62.35.08,0-.51-.26a17.29,17.29,0,0,0-1.69-.62V722.68l-2.33-.14-4.88-10.87,7.08-2.71-1.19-3.69,80.91-18c.32-.07.64-.16,1-.25,16.15-4.74,16.15-4.74,18.45,12.58l3.3,2.26c.11,1.9.2,3.55.29,5.2-9,8.34-17.89,16.73-26.93,25-1.43,1.3-3.41,2-5.14,3l-48.82,12.12L467,749.06l-1.85.08Z"/><path class="cls-4" d="M327,134.88q-1.36,6.27-2.75,12.53l2.12.63c-.52.6-1,1.64-1.57,1.73-14.74,2.32-14.14,13.12-13.88,24.19.33,13.94.07,27.91,0,41.86a24.56,24.56,0,0,1-.83,4.33h-6.63l3.55,8.78c0,.67,0,1.33,0,2l-3.24-1.05-1.61,2.34,4.86,3.71c0,.33,0,.65,0,1l-6.1,14.47a29.72,29.72,0,0,0-4.12-2.11c-8.19-2.88-16.55-8.16-24.62-7.76-8.27.4-16.73,5.62-24.28,10.12-11.16,6.66-23.3,12.95-32,22.25-15.56,16.71-22.22,38.48-22.94,60.89-.28,9-6.64,20.27,4,28.19h0c-9.12-4.37-9.92-10.73-7.4-20.29,3.33-12.64,3.11-26.19,6.12-38.95,6-25.3,22.23-44,43.48-57.42,19.81-12.56,41.12-22.76,61.79-34a19.63,19.63,0,0,1,3.11-1l5.15,9c0-11,0-18.47,0-25.89-.13-18.23-2.6-36.79,7.8-53.48v0l2-1.14.88-.89,1.13-1h0l2-1Z"/><path class="cls-10" d="M651.08,562c-7.27-14.51-7.83-29.81-7.28-45.81,1.41-40.42,1.59-80.9,2.2-121.35.14-9.22,0-18.44,0-27.81L657,348Q654,455,651.08,562Z"/><path class="cls-6" d="M637.05,276.94c-16-12.14-31.48-25.08-48.19-36.18-15-10-31.32-18-47.2-26.64-1.72-.93-4.38-.15-6.6-.16-.34,1-.68,2-1,3l-5.67,3.56V157l4.72,13.16V156.74q.43,21.66.89,43.33c.07,3.11.32,6.2.5,9.47l16.57,5.32c9.23,4.75,18.77,9,27.64,14.37C595.65,239.48,612.22,250.37,629,261l0,.05,8.15,11.86v0l-.06,4.06Z"/><path class="cls-10" d="M657.05,347a14.88,14.88,0,0,0-3,1.08c-.94.59-1.67,1.51-6,5.61,2.07-20.26-6.76-36.64,1.06-53.8Q653.07,323.39,657.05,347Z"/><path class="cls-11" d="M629,261c-16.73-10.62-33.3-21.51-50.25-31.76-8.87-5.37-18.41-9.62-27.64-14.37C581.27,223.06,608.42,236.43,629,261Z"/><path class="cls-12" d="M484,126.93q3.74,4.57,7.48,9.16l-17.73,11.65-6-2.84,15.32-18A5.86,5.86,0,0,1,484,126.93Z"/><path class="cls-5" d="M459.08,749l6.1.19L438,751.07Z"/><path class="cls-11" d="M645.21,288.9q-3-6-6.07-12.06Z"/><path class="cls-11" d="M637.14,272.9,629,261Z"/><path class="cls-5" d="M467,749.06l15.14-1.93Z"/><path class="cls-5" d="M418.88,751.12h0Z"/><path class="cls-11" d="M637.07,276.93l.06-4.06q1,2,2.08,3.93Z"/><path class="cls-10" d="M650.1,573.06c.31-2,.62-4,.94-6,0,2,0,4,0,5.94Z"/><path class="cls-6" d="M532.89,154.82l-.84-1.93Z"/><path class="cls-8" d="M530.1,148.86l-1.06,0c0-.63-.11-1.27-.17-1.9l.18-.11Z"/><path class="cls-7" d="M319,139.78l-2,1.14Z"/><path class="cls-7" d="M323,136.86l-2,1Z"/><path class="cls-6" d="M532.07,152.91c-.33-.69-.67-1.37-1-2.06C531.4,151.54,531.74,152.22,532.07,152.91Z"/><path class="cls-6" d="M531.11,150.91l-1.07-2Z"/><path class="cls-8" d="M528.09,145.85l1,1.05-.18.11-.9-1Z"/><path class="cls-8" d="M527.11,144.82l1,1L528,146l-1-.91Z"/><path class="cls-7" d="M321,137.92l-1.13,1Z"/><path class="cls-3" d="M601,659l-7.19-1.62c5.37-4.26,8.86-7,14.31-11.37v7.08Z"/><path class="cls-10" d="M649.07,581l1-8Z"/><path class="cls-13" d="M522.77,675.93a1.27,1.27,0,0,0-.74.13l-14.91.21c-6.43-7.15-13-14.17-19.26-21.49-6-7-11.57-14.3-17.32-21.46-26.17,12.85-51.57,17.71-77.93,6.5-3.38-1.44-5.77-5.22-8.63-7.91l2.2-1.83,1.88-.15,3.92-.08,6.85.26L415,632h10.05l14.12-1.87,3-.41,1.21-.6a1.42,1.42,0,0,0,.75-.21l1.32-.79,1.66-.19,2-.83-.06,0,2.16-1a2.09,2.09,0,0,0,.88-.2l1-.83-.08.09,2.3-1,1.8-.4c.3-.24.61-.47.92-.7l0,0,2.21-.95.93-.39,1.15-.64,2.79-1.32L466,619l0,0,1.27-.92a1.91,1.91,0,0,0,.8-.24l1-.79-.06.05,1.43-1a1,1,0,0,0,.61-.2l1-.83-.08.06,1.41-1a1.15,1.15,0,0,0,.65-.22l1-.82,1-.46a1,1,0,0,0,.58-.59l.28-.27,1-.71h0l1.2-.94a2.79,2.79,0,0,0,.89-.32c.27-.25.54-.5.82-.74l.08-.08,1.08-.89v.06l55.17-53.28-10.67-8.53c.44-1.28.87-2.57,1.31-3.86,6.81,2.28,14.6,3.27,20,7.4,2.41,1.85,0,10-.22,15.29l-9.58-1.65c-2.27,3.76-5.65,9.33-9.68,16C553.4,585.72,569,599.31,566,627a1.88,1.88,0,0,0,0,.85c-.31,1-.62,2.11-.92,3.17a1.23,1.23,0,0,0-.14.68c-.23.75-.46,1.51-.68,2.26-.09.59-.17,1.17-.25,1.76l-.63,1.19c-.11.33-.23.67-.35,1l-.84,2.07a1.67,1.67,0,0,0-.18.76l-.79,1.31-.08.1c-.31.62-.63,1.23-.94,1.84a1.74,1.74,0,0,0-.19.75c-.28.44-.56.87-.83,1.31l0,.08c-.34.63-.68,1.27-1,1.9v0l-2,3,0,0-.7.84-1.33,2c-.3.39-.59.78-.89,1.16l-.07.07c-.28.31-.55.63-.83.95l-.15.18-.7.69c-.46.59-.93,1.17-1.4,1.76l-1.3,1.27L544,664.13l-1,.89,0,0L542,666l.07-.06-1.39,1L537,669.29l-1.12.69-.91.41-.87.64h0l-1.4.91a1.18,1.18,0,0,0-.65.22l-2,.81.06,0-2.17,1a2.09,2.09,0,0,0-.88.26l-2,.74.08,0Zm-40.95-52c7.85,11.69,13.2,19.47,18.36,27.38,13.52,20.71,20.47,22.15,39.07,5.52,11.5-10.28,19-23.54,16.12-39.81-2.61-15.1-14.63-21.29-27.83-23.24-5-.74-11,5-19,9.05,14.38,7.2,24.31,12.31,23.87,25.25-8.14-4-15.92-10.44-24.26-11.27C500.17,616,491.62,621,481.82,624ZM537,663.84l0,.3.28-.09Z"/><path class="cls-14" d="M510.1,512.53c-.21,17.73-14,33.2-29.47,33.08-13.24-.1-23.92-13.67-23.68-30.07.25-17.26,12.87-31.52,27.79-31.41C499.06,484.24,510.28,496.8,510.1,512.53ZM482.92,520c5.45-8.29,10.64-12.9,10.93-17.8.2-3.31-6.5-7-10.12-10.57-4.07,4.17-10,7.76-11.5,12.72C471.33,507.2,477.39,512.26,482.92,520Z"/><path class="cls-15" d="M535.92,455.66c-22.1-20.86-48.74-27.48-86.67-19.25-1.39-3.4-4.55-7.42-3.95-10.75.55-3.07,4.72-6.84,8-7.85,26.3-8.06,66.26,3.53,77.54,22.48C533.57,444.81,534.29,450.5,535.92,455.66Z"/><path class="cls-5" d="M397.28,742.87l-3.68-.82.82-.9C394.67,741.29,394.91,741.43,397.28,742.87Z"/><path class="cls-16" d="M307,236.91c0-.33,0-.65,0-1,0-1.67,0-3.34,0-5,0-.67,0-1.33,0-2,11.73-16.39,5.66-35.18,6.81-52.92.95-14.78,5.6-19,20.13-15.3,1.26.32,2.57.45,4.75.82L345,147.89l2.68,5.35,7.34-8.33-.5,3.74L373,154.91c-15.13-3.44-28.22-1.54-29.32,4.27,4.94,5,23.66,3.52,29.34-2.27l-8.63,9.9c38.36,5.93,77.47,5.51,116.64.1-.66.67-1.33,1.34-2,2h-6l-3,1-5,1h-1l-44.81,3.33,5.29,8.29c-3.61,1.29-6.44,3.1-9.32,3.17-10.34.27-16.42,4.25-16.86,15.47-.19,5.07-1.94,10.1-3.1,15.13-6.54,28.54-5.43,31.39,18.48,47.39.82.55,1.24,1.72,2.55,3.61l-14.95,2.75c.72,5.43,1.42,10.72,2.29,17.25l-11.19,5,21.45,29.15-7.43,5.4,1.32,8c-3.34,8.47-5.35,13.54-7.35,18.61a80.5,80.5,0,0,0-17.72,21.79c-4.83,8.44-13,16.3-7.66,27.66l-32.23-2-.06-1.49,14-1.2c.4-1.2.79-2.4,1.19-3.6l-14.79-5.83c10.42-6.1,27.76.54,34.42-16.68,4.89-12.67,12.56-24.26,19.87-38-6.41-3-11.42-6.24-16.91-7.66-27.43-7.1-54.74-15.14-82.6-19.87-13.44-2.28-28,1.73-42,3.4-27,3.22-38.09,23-28,48.86,2.2,5.67,3.53,11.68,6,20.12L206,367c-3.58-3.48-9.65-6.59-10.23-10.51-1.13-7.61.26-15.78,1.6-23.54,4-23.37,17.63-41.22,35.91-54.86,11.62-8.66,24-17.58,41-13.55,11.18,2.64,23.17,1.78,33.26,2.39.58-8.09,1.3-14.75,1.4-21.41C309,242.63,307.72,239.77,307,236.91Zm82-60-11-2c-.32,0-.65,0-1,0-8-4.52-54.36-8.81-54.37-6,4.65,7.51,9.05,15.25,11.22,23.58,5,19.12-5.3,41.15,10.78,58.81l-9.12,1.19c-.12.88-.23,1.77-.34,2.65l25.43,7c.12,2.65.24,5.4.37,8.15-.95,4.37-1.22,11.75.26,12.12,11.12,2.8,22.59,4.22,33.95,6.07l1.29-4.62-11.94-11,1.6-4.45-6.49-3.9h24.06l-.09-1-27.82-6.12c1.29-9.4,1.54-16.49,3.33-23.16,3.39-12.57,7.3-25,11.8-37.26a20.21,20.21,0,0,1,8.39-9.69c4.51-2.59,10.08-3.33,15.19-4.87-.11-1.21-.22-2.43-.34-3.65L391,176.93Z"/><path class="cls-17" d="M373,541c-8.42,3.84-6,10-4.19,16.68,1.35,5,1.17,10.53,1.14,15.82-.12,21.89-.29,43.77-.9,65.65-.07,2.27-4.09,4.23-4.75,6.74-1.12,4.28-3,10.2-1.1,13.12,10.75,16.31,30.19,15,46,21,12.72,4.84,25.72,9,38.59,15.26-5.93.34-11.86,1-17.78,1-29-.36-58-.91-87-1.5-1.35,0-2.69-1.14-4-1.75L350,691.39c-10.41-3.65-20.66-5.62-29.11-10.62-9.57-5.68-17.64-14-26-21.51-.63-.57,1.14-4.64,2.57-6.47,1.63-2.09,4.14-3.5,7.95-6.56,11.71-4.68,15-16.92,7-31.24a19.17,19.17,0,0,1-1.92-9.36c.69-33.3,1.88-66.59,2.19-99.89.07-7-2.88-14.11-4.6-21.9l-4.4-.52c-4.62-9.21,10.4-20.3,41.78-30.84l-2.69-.64L366,450.06l5.95,1-10.94,5.07c-1.2,7.75-2.15,13.83-3.11,20L373,484.94l11.1,24c-.06-.63-.11-1.25-.17-1.87l-.79-3.08a2.53,2.53,0,0,1-.23-.8l-.63-1.2-.4-1.82L381,498h0l-.73-1a2.7,2.7,0,0,1-.3-.95c-.37-.67-.75-1.34-1.13-2l.09.05L378,493c-7.09-9.15-16.39-12.67-27.77-10.91-1.56,0-3.46-.6-4.63.07-17.87,10.44-19.76,31.24-11.24,46.2,2.78,4.87,9.05,7.76,13.72,11.56l2,1,8.8,5.16.84-1.74L357,543l12.79-2.28Z"/><path class="cls-18" d="M394.78,334.72c-9,10.46-14.82,20.74-23.56,26.62-27,18.17-56.86,9.12-85.75,5.92-12-1.33-30-18.56-30.5-26.74-1.09-16.09,4.86-21.3,21.19-24.8,33.52-7.19,64.7,1,95.83,11.57C378.18,329.39,384.43,331.35,394.78,334.72Zm-22.14,1c-23.39-10.06-45.58-16.68-70.18-11.43-8.28,1.77-12.33,6.43-11.25,13.51.83,5.44,4.53,13.75,8.5,14.78,13.36,3.45,27.57,6.35,41.16,5.4C353.72,357.08,365.27,349.75,372.64,335.73Z"/><path class="cls-6" d="M375,403c-5.3-11.36,2.83-19.22,7.66-27.66a80.5,80.5,0,0,1,17.72-21.79c2-5.07,4-10.14,7.35-18.61l-1.32-8,7.43-5.4-21.45-29.15,11.19-5c-.87-6.53-1.57-11.82-2.29-17.25l14.95-2.75c-1.31-1.89-1.73-3.06-2.55-3.61-23.91-16-25-18.85-18.48-47.39,1.16-5,2.91-10.06,3.1-15.13.44-11.22,6.52-15.2,16.86-15.47,2.88-.07,5.71-1.88,9.32-3.17l-5.29-8.29L464,170.92l-59.78,20.39c0,18.95-.33,39,.14,59.05.25,10.46,9.57,12.31,17.08,13.47,12.71,2,25.67,2.25,38.66,3.86-13.81,2.72-28,4.31-36.52,12.13l8.31,20,2.18-.47c2.13,7.45,4.26,14.9,5.83,20.36L428,330.47c-7.23,11.84-14,24.07-22,35.49-3.11,4.47-8.86,7.1-15.62,12.25-.13.59-.92,4.46-1.77,8.58l-7.44-1.4L377,392.8l4.76,8L397,405Z"/><path class="cls-8" d="M307,236.91c.68,2.86,2,5.72,1.93,8.57-.1,6.66-.82,13.32-1.4,21.41-10.09-.61-22.08.25-33.26-2.39-17.08-4-29.41,4.89-41,13.55-18.28,13.64-31.88,31.49-35.91,54.86-1.34,7.76-2.73,15.93-1.6,23.54.58,3.92,6.65,7,10.23,10.51l-9-4c-10.64-7.92-4.28-19.22-4-28.19.72-22.41,7.38-44.18,22.94-60.89,8.67-9.3,20.81-15.59,32-22.25,7.55-4.5,16-9.72,24.28-10.12,8.07-.4,16.43,4.88,24.62,7.76a29.72,29.72,0,0,1,4.12,2.11Z"/><path class="cls-6" d="M373,484.94l-15.09-8.79c1-6.22,1.91-12.3,3.11-20L372,451l4,.15c0,.26,0,.53,0,.8l8,1,1.06-.07,0,0,1,1,2-1.11-.09.11,1.09-1,0,0,1-.78.18-.17.83-.81.2-.19.8-.8.2-.21.8-.86.13-.14L394,447l0,0,1-1c0-.33.05-.65.05-1l0-.06q0-3,0-6l-.07-.08-.77-.83L393,436.77l-1-.76.1.06-3.37-1a1.18,1.18,0,0,1-.73-.21l-3.32-.79-4.65-.19-10.24-1-8.7.1v1h-2l-5.47-1.51-.23,1.27,2.93.39L346,435.92l5.06-3.28-23.86,3.41c.82-6.89,1.59-13.37,2.83-23.76,10.22-1.73,22.42-4.34,34.76-5.72,11-1.24,22.12-1.12,33.19-1.59h32.14c0,.94.07,1.89.1,2.83l-55.06,2.49c-1.47,5.83-2.72,10.76-4.35,17.21,6.18,1.51,12.71,1.69,17.43,4.71,4,2.56,9,9.29,8.06,12.58-1.74,6-4.85,14.43-15.51,10.47-3.5-1.3-8.22.7-10.5,1C371.32,467,372.17,476,373,484.94Z"/><path class="cls-19" d="M387.94,434.86a1.18,1.18,0,0,0,.73.21l3.37,1-.1-.06,1,.76,1.32,1.29.77.83.07.08q0,3,0,6l0,.06c-.21.33-.43.65-.65,1l-.37,1,0,0-.83,1.06-.13.14c-.27.29-.53.58-.8.86l-.2.21-.8.8-.2.19-.83.81-.18.17-1,.78,0,0-1.09,1,.09-.11-2,.25-1-.18,0,0-1.11-.69A2.7,2.7,0,0,0,383,452l-17-1.92-23.27,1.78L340,452l-4.92,1-.05,0-3.13.89L304.75,467c-4.07-7.7,13.08-21.95,41.25-31.08l10.25-1.8L359,434h2l19-.08,4.65.19Z"/><path class="cls-17" d="M335.08,453l4.92-1Z"/><path class="cls-17" d="M331.9,453.93,335,453Z"/><path class="cls-3" d="M534.05,216.93c.33-1,.67-2,1-3,9.13,3.86,18.38,7.45,27.28,11.79,2.07,1,4.61,5.36,3.95,6.8a14.38,14.38,0,0,1-7.36,7.08c-6.38,2.21-13.52,2.35-19.68,4.94-2.87,1.21-4.19,6.13-6.21,9.36,0,.67,0,1.33,0,2-4,2-7.92,5.42-12,5.59-19.41.82-38.86.76-58.3,1-6.43.07-12.85,0-16.91,0-14.44-15-20.44-30.14-19.11-48.92,1.41-19.83,9.1-27.07,28.91-28.26,12.53-.75,24.78-6,37.19-9.09,8.28-2.07,16.61-3.94,25.74-6.1,1.12,5,2.79,9.7,3.11,14.48.75,11.28.73,22.61,1.33,33.91.16,3.06,1.42,6.07,2.17,9.1,2.23-2.07,4.6-4,6.62-6.27C532.85,220.15,533.31,218.42,534.05,216.93Z"/><path class="cls-20" d="M380,496.07a2.7,2.7,0,0,0,.3.95l.73,1h0c.3.74.6,1.47.91,2.21.13.61.26,1.21.4,1.81l.63,1.21a2.53,2.53,0,0,0,.23.8c.26,1,.53,2.05.79,3.08.06.62.11,1.24.17,1.87,0,.34,0,.69,0,1,0,2.31,0,4.62,0,6.94-.09,1-.19,1.94-.28,2.91-.2.69-.39,1.38-.59,2.06l-.3,1.7-.7,1.28c-.09.61-.19,1.22-.28,1.83l-.69,1.12-.36,1v.06l-.67,1.12-10.45,10.72L357,543l-7-2.13-2-1c-19.95-16.06-21.32-41.2-3-55.15l1-.77,0,.05,2.07-1-.07,0,2.09-1,.11,0c11.38-1.76,20.68,1.76,27.77,10.91l.94,1.11-.09-.05C379.23,494.73,379.61,495.4,380,496.07Zm-4.27,5.09c-8.53-5.83-13-11-17.87-11.46-3.17-.31-10.56,7.45-9.87,9.36,1.8,5,6.35,10.7,11.09,12.28C362.08,512.35,367.39,506.52,375.71,501.16Z"/><path class="cls-6" d="M560.11,308.84l-3.71,7.73-10.31,1.84c-.54-3.53-.8-5.31-1.09-7.21l-9.43-3.35c1.47-14.91,35.33-35.09,55.27-33.25l-4,2.82C583.39,292,569.86,308.36,560.11,308.84Z"/><path class="cls-6" d="M533,255.92c0-.66,0-1.32,0-2,7.66-2.66,15.19-5.8,23-7.81,4.83-1.24,10.11-.76,15.91-1.1l3.59,10-47.83,16.64C530.38,263.8,531.71,259.86,533,255.92Z"/><path class="cls-6" d="M536,323.77c-3.46,6.29-5.75,13.79-10.69,18.54s-12.66,7-19.67,10.61l-1.69-3.1-13.4-5.43,25.92-20c2.68,4.46,4,6.65,6.07,10.11l10.87-11.83Z"/><path class="cls-3" d="M549.34,272.62c5.24-2.11,10.83-6.61,15.67-5.91,17.32,2.5,33.6-16.81,52.14-4.07l-66.21,14.09C550.4,275.36,549.87,274,549.34,272.62Z"/><path class="cls-6" d="M527,145.07l1,.91.9,1c.06.63.12,1.27.17,1.9l-34,16Q511,155,527,145.07Z"/><path class="cls-6" d="M484,173.92l-18.72,8.94-1.59-4L484,173.92Z"/><path class="cls-6" d="M484,173.92l19.65-8.73,1.26,3.72-20.91,5Z"/><path class="cls-4" d="M369.81,540.73,380.26,530c.22-.37.44-.75.67-1.12v-.06c0,1.38.05,2.76.07,4.13l-8,8Z"/><path class="cls-6" d="M479,168.91c.67-.66,1.34-1.33,2-2l9-2Z"/><path class="cls-3" d="M439.18,630.09,425.06,632Z"/><path class="cls-3" d="M526,154.19l1.62-.9.43.76-1.62.9Z"/><path class="cls-3" d="M384.13,517c0-2.32,0-4.63,0-6.94l.9,1c0,1.3,0,2.61,0,3.92C384.74,515.61,384.44,516.28,384.13,517Z"/><path class="cls-6" d="M465,170.91l5-1Z"/><path class="cls-17" d="M385.05,514.94c0-1.31,0-2.62,0-3.92C385,512.32,385.05,513.63,385.05,514.94Z"/><path class="cls-6" d="M470,169.91l3-1Z"/><path class="cls-3" d="M383.26,521.93c.2-.68.39-1.37.59-2.06a4,4,0,0,1,.35.36c0,.19,0,.39-.05.58Z"/><path class="cls-3" d="M449.1,627.06l-2,.83Z"/><path class="cls-3" d="M451.2,626.08l-2.16,1Z"/><path class="cls-3" d="M455.34,624.13l-2.3,1Z"/><path class="cls-3" d="M460.24,622.1l-2.21.95Z"/><path class="cls-3" d="M467.3,618.06,466,619Z"/><path class="cls-3" d="M462.32,621.07l-1.15.64Z"/><path class="cls-3" d="M469.1,617l-1,.79Z"/><path class="cls-3" d="M458.06,623c-.31.23-.62.46-.92.7C457.44,623.49,457.75,623.26,458.06,623Z"/><path class="cls-3" d="M470.47,616.07l-1.43,1Z"/><path class="cls-3" d="M453.12,625.05l-1,.83Z"/><path class="cls-3" d="M472.12,615l-1,.83Z"/><path class="cls-3" d="M473.45,614.08l-1.41,1Z"/><path class="cls-3" d="M445.43,628.08l-1.32.79Z"/><path class="cls-3" d="M475.14,613l-1,.82Z"/><path class="cls-3" d="M476.74,612a1,1,0,0,1-.58.59A4.62,4.62,0,0,1,476.74,612Z"/><path class="cls-3" d="M443.36,629.08l-1.21.6Z"/><path class="cls-3" d="M478,611l-1,.71Z"/><path class="cls-3" d="M479.23,610.06,478,611Z"/><path class="cls-3" d="M480.94,609c-.28.24-.55.49-.82.74C480.39,609.49,480.66,609.24,480.94,609Z"/><path class="cls-3" d="M482.1,608l-1.08.89Z"/><path class="cls-3" d="M381.29,527.86l.69-1.12Z"/><path class="cls-3" d="M382.26,524.91l.7-1.28Z"/><path class="cls-17" d="M384.15,520.81c0-.19,0-.39.05-.58A.62.62,0,0,1,384.15,520.81Z"/><path class="cls-3" d="M466,619l-.88.74Z"/><path class="cls-3" d="M507.12,676.27l14.91-.21Z"/><path class="cls-3" d="M415,632l-16.18-1.86Z"/><path class="cls-3" d="M521.43,681.43l4-1.81.42.88-3.9,2Z"/><path class="cls-3" d="M392,629.85l-3.92.08Z"/><path class="cls-3" d="M556.08,651l2-3Z"/><path class="cls-3" d="M565.05,631c.3-1.06.61-2.12.92-3.17C565.66,628.9,565.35,630,565.05,631Z"/><path class="cls-3" d="M386.18,630.08l-2.2,1.83Z"/><path class="cls-3" d="M558.07,648c.35-.63.69-1.27,1-1.9C558.76,646.76,558.42,647.4,558.07,648Z"/><path class="cls-3" d="M560.17,644c.31-.61.63-1.22.94-1.84C560.8,642.77,560.48,643.38,560.17,644Z"/><path class="cls-3" d="M562.16,640l.84-2.07Z"/><path class="cls-3" d="M530,673l2-.81Z"/><path class="cls-3" d="M525,675l2-.74Z"/><path class="cls-3" d="M522.77,675.93l2.26-1Z"/><path class="cls-3" d="M564.23,634c.22-.75.45-1.51.68-2.26C564.68,632.45,564.45,633.21,564.23,634Z"/><path class="cls-3" d="M527.86,674l2.17-1Z"/><path class="cls-3" d="M563.35,636.91l.63-1.19Z"/><path class="cls-3" d="M561.19,642.05l.79-1.31Z"/><path class="cls-3" d="M559.15,646.05c.27-.44.55-.87.83-1.31C559.7,645.17,559.42,645.61,559.15,646.05Z"/><path class="cls-3" d="M555.35,651.91l.7-.84Z"/><path class="cls-3" d="M553.13,655c.3-.38.59-.77.89-1.16C553.72,654.27,553.43,654.66,553.13,655Z"/><path class="cls-3" d="M552.23,656.06c.28-.32.55-.64.83-.95C552.78,655.42,552.51,655.74,552.23,656.06Z"/><path class="cls-3" d="M551.38,656.93l.7-.69A3.52,3.52,0,0,1,551.38,656.93Z"/><path class="cls-3" d="M548.68,660l1.3-1.27Z"/><path class="cls-3" d="M543,665l1-.89Z"/><path class="cls-3" d="M542,666l1.08-1Z"/><path class="cls-3" d="M540.64,667l1.39-1Z"/><path class="cls-3" d="M535.83,670l1.12-.69Z"/><path class="cls-3" d="M534.05,671l.87-.64Z"/><path class="cls-3" d="M532.64,672,534,671Z"/><path class="cls-3" d="M595,663l-8,1.72,6-7.22c1.09,2.93,1.56,4.21,2,5.48Z"/><path class="cls-3" d="M615.61,639.3q1.67-2.35,3.34-4.7l1.82,1.2-3.13,4.92Z"/><path class="cls-3" d="M628.93,618.26l3.5,2.78-1.2,1.67-3.73-2.34Z"/><path class="cls-3" d="M644.42,595.37h0C644.24,594.57,644.29,594.8,644.42,595.37Z"/><polygon class="cls-4" points="191.17 366.06 190.86 366.08 190.99 365.81 191.17 366.06"/><path class="cls-21" d="M427.87,136.38l-13.4,8.3-1.31-1.77-3.38,6.28,7.06,4.69L414,162.34h-32.5c4.2-11.83,7.91-22.27,10.93-30.79h34.27Q427.28,134,427.87,136.38Z"/><path class="cls-22" d="M506,132.92c-1.55,5.62-2,11.93-5,16.67s-8.07,8.65-13,11.49c-2.08,1.19-6.27-1.31-9.5-2.13,2.08-3.08,3.74-6.58,6.32-9.15,4.76-4.71,10-9,15.17-13.23a46,46,0,0,1,6-3.65Z"/><path class="cls-12" d="M464.22,134.78c-6.71,13.56-9.14,28.76-29.63,26.29,1.32-3.21,1.64-6.55,3.45-7.93C446.05,147.05,454.48,141.52,464.22,134.78Z"/><path class="cls-6" d="M373,156.91c-5.68,5.79-24.4,7.23-29.34,2.27,1.1-5.81,14.19-7.71,29.32-4.27C373,155.58,373,156.25,373,156.91Z"/><path class="cls-23" d="M425,144.35c4.69-4.71,9.11-9.77,14.3-13.84,1.09-.86,5,1.87,10.49,4.14L428.25,148.6Z"/><path class="cls-6" d="M355,144.91l-7.34,8.33L345,147.89l9.46-18,4.88,5.74Z"/><path class="cls-21" d="M427.14,159.78c-1.38-.82-3.22-1.35-4-2.56-.63-1,0-2.77.27-7l5.44,7.78Z"/><path class="cls-7" d="M307,230.93c0,1.66,0,3.33,0,5l-4.86-3.71,1.61-2.34Z"/><path class="cls-24" d="M481.82,624c9.8-2.91,18.35-7.92,26.31-7.12,8.34.83,16.12,7.24,24.26,11.27.44-12.94-9.49-18.05-23.87-25.25,8-4,14-9.79,19-9.05,13.2,2,25.22,8.14,27.83,23.24,2.83,16.27-4.62,29.53-16.12,39.81-18.6,16.63-25.55,15.19-39.07-5.52C495,643.42,489.67,635.64,481.82,624Z"/><polygon class="cls-24" points="537 663.84 537.23 664.05 536.95 664.14 537 663.84"/><path class="cls-18" d="M482.92,520c-5.53-7.71-11.59-12.77-10.69-15.65,1.54-5,7.43-8.55,11.5-12.72,3.62,3.54,10.32,7.26,10.12,10.57C493.56,507.07,488.37,511.68,482.92,520Z"/><path class="cls-8" d="M391,176.93l23.17,1.84c.12,1.22.23,2.44.34,3.65-5.11,1.54-10.68,2.28-15.19,4.87a20.21,20.21,0,0,0-8.39,9.69c-4.5,12.22-8.41,24.69-11.8,37.26-1.79,6.67-2,13.76-3.33,23.16l27.82,6.12.09,1H379.66l6.49,3.9-1.6,4.45,11.94,11-1.29,4.62c-11.36-1.85-22.83-3.27-33.95-6.07-1.48-.37-1.21-7.75-.26-12.12-.13-2.75-.25-5.5-.37-8.15l-25.43-7c.11-.88.22-1.77.34-2.65l9.12-1.19c-16.08-17.66-5.79-39.69-10.78-58.81-2.17-8.33-6.57-16.07-11.22-23.58,0-2.82,46.38,1.47,54.37,6l-31.75-2c8.45,10.84,46.23,14.76,54.11,7.58Zm-22.39,86.5,0,.84,2.58-.13,0-.71Z"/><path class="cls-25" d="M391,176.93l8.37,3.59c-7.88,7.18-45.66,3.26-54.11-7.58l31.75,2c.32,0,.65,0,1,0l11,2Z"/><path class="cls-8" d="M389,176.9l-11-2Z"/><path class="cls-4" d="M345.07,484.77c-18.31,14-16.94,39.09,3,55.15-4.67-3.8-10.94-6.69-13.72-11.56-8.52-15-6.63-35.76,11.24-46.2,1.17-.67,3.07-.07,4.63-.07l-.11,0-2.09,1,.07,0-2.07,1,0-.05Z"/><path class="cls-4" d="M350.05,540.88l7,2.13,2.67,1.29-.84,1.74Z"/><path class="cls-3" d="M366,450.06,383,452l-6,0-1-.77-4-.15Z"/><path class="cls-3" d="M384,507.11c-.26-1-.53-2.06-.79-3.08C383.43,505.05,383.7,506.08,384,507.11Z"/><path class="cls-3" d="M381.91,500.21c-.31-.74-.61-1.47-.91-2.21C381.3,498.74,381.6,499.47,381.91,500.21Z"/><path class="cls-3" d="M380,496.07c-.37-.67-.75-1.34-1.13-2C379.23,494.73,379.61,495.4,380,496.07Z"/><path class="cls-3" d="M382.94,503.23l-.63-1.21Z"/><path class="cls-3" d="M381,498l-.73-1Z"/><path class="cls-3" d="M378.94,494.11,378,493Z"/><path class="cls-26" d="M372.64,335.73c-7.37,14-18.92,21.35-31.77,22.26-13.59.95-27.8-1.95-41.16-5.4-4-1-7.67-9.34-8.5-14.78-1.08-7.08,3-11.74,11.25-13.51C327.06,319.05,349.25,325.67,372.64,335.73Z"/><path class="cls-27" d="M380,433.88,361,434c0-.34,0-.67,0-1l8.7-.1Z"/><path class="cls-4" d="M369.73,432.85l-8.7.1Z"/><path class="cls-4" d="M359,434l-2.77.15-2.93-.39.23-1.27Z"/><path class="cls-17" d="M377,452l6,0a2.7,2.7,0,0,1,.94.28c0,.25,0,.51.05.76l-8-1Z"/><path class="cls-3" d="M395.1,445q0-3,0-6Q395.11,442,395.1,445Z"/><path class="cls-27" d="M387.94,434.86l-3.32-.79Z"/><path class="cls-27" d="M392,436.07l-3.37-1Z"/><path class="cls-27" d="M386,453.11l2-.25L386,454Z"/><path class="cls-3" d="M390.23,451l.83-.81Z"/><path class="cls-3" d="M393,436.77l-1-.76Z"/><path class="cls-3" d="M391.26,450l.8-.8Z"/><path class="cls-3" d="M395.05,438.89l-.77-.83Z"/><path class="cls-3" d="M394.41,446c.22-.32.44-.64.65-1,0,.33,0,.65-.05,1Z"/><path class="cls-27" d="M394.41,446h.6l-1,1C394.16,446.66,394.29,446.34,394.41,446Z"/><path class="cls-3" d="M393.19,448,394,447Z"/><path class="cls-3" d="M392.26,449c.27-.28.53-.57.8-.86C392.79,448.44,392.53,448.73,392.26,449Z"/><path class="cls-3" d="M386,453.11l0,.86-1-1Z"/><path class="cls-27" d="M387.94,453l1.09-1Z"/><path class="cls-3" d="M384,453c0-.25,0-.51-.05-.76l1.11.69Z"/><path class="cls-3" d="M389,452l1-.78Z"/><path class="cls-27" d="M377,452l-1,0c0-.27,0-.54,0-.8Z"/><path class="cls-28" d="M375.71,501.16c-8.32,5.36-13.63,11.19-16.65,10.18-4.74-1.58-9.29-7.29-11.09-12.28-.69-1.91,6.7-9.67,9.87-9.36C362.74,490.19,367.18,495.33,375.71,501.16Z"/><path class="cls-17" d="M348,483.08l2.09-1Z"/><path class="cls-17" d="M346,484.05l2.07-1Z"/><path class="cls-3" d="M380.93,528.89c-.23.37-.45.75-.67,1.12C380.48,529.64,380.7,529.26,380.93,528.89Z"/><path class="cls-17" d="M345.07,484.77l1-.77Z"/><path class="cls-16" d="M368.62,263.43h2.56l0,.71-2.58.13Z"/></svg>