<?xml version="1.0" encoding="utf-8"?>
<!-- Generator: Adobe Illustrator 26.0.2, SVG Export Plug-In . SVG Version: 6.00 Build 0)  -->
<svg version="1.1" id="Calque_1" xmlns="http://www.w3.org/2000/svg" xmlns:xlink="http://www.w3.org/1999/xlink" x="0px" y="0px"
	 viewBox="0 0 450.7 396.4" style="enable-background:new 0 0 450.7 396.4;" xml:space="preserve">
<path d="M333.7,89.7c0.3,0.3,0.7,0.6,1,0.9c0.3,0.3,0.7,0.6,1,0.9c0.7,0.7,1.2,1.6,2,2.2c7.4,6.1,14.7,12.1,22.1,18.1
	c0.4,0.3,1,0.4,1.8,0.8c0-15,0-29.6,0-44.1c0.6-2.8,2.3-4.1,5.2-4.1c5.6,0.1,11.2,0.1,16.7,0c2.2-0.1,3.7,1,5.1,2.3
	c0.1,0.6,0.2,1.2,0.2,1.9c0,21.7-0.1,43.4-0.1,65c0,0.6,0.6,1.3,0.9,1.9c2.6,2.3,5.2,4.7,8,6.9c1.8,1.5,3.9,2.8,5.8,4.2
	c3.7,4.5,8.6,7.5,13.2,11c6.4,5.3,12.7,10.6,19.1,15.8c2.6,2.7,5.2,5.5,7.9,8.2c0,0.9,0,1.8,0,2.7c-2.7,3.6-5.3,7.3-8.2,10.9
	c-1.5,1.9-3.3,3.5-4.9,5.2c-1.6,0-3.2,0-4.8,0.1c-3-2.3-6-4.6-9.1-6.9c-5.6-4.8-11.2-9.6-16.9-14.4c-2.5-2.1-5.2-3.9-7.9-5.9
	c-0.8-1-1.6-2-3.1-3.9c0,71.5,0,141.7,0,212c-0.3,0.7-0.6,1.4-0.9,2c-2.1,3.8-4.6,7-9.1,8.1c-8.4,0-16.7,0-25.1,0.1
	c-1,0-2,0.5-3.1,0.8c-5.6,0-11.3,0-16.9,0c-9,0-18,0-27,0c-9,0-18,0-27,0c-6-0.4-12.1,0.6-18-0.8c-4.7-1.4-7.2-4.9-9-9.1
	c-0.3-4-0.6-8.1-0.8-12.1c-0.1-1.6-0.1-3.3-0.1-4.9c0-0.3,0-0.7,0-1c0-9,0-18,0-27c0-9,0-18,0-27c0-9,0-18,0-27c0-0.3,0-0.7,0-1
	c0-4.2,0-8.5,0-13c-9.2,0-18.1,0-27,0c-4.5,0-8.9-0.3-13.4,0c-4.5,0.2-9-1.9-13.6-0.4c0,4.5,0,9,0,13.4c0,9.3,0,18.7,0,28
	c0,9,0,18,0,27c0,9.3,0,18.7,0,28c0,4.6-0.1,9.2-0.1,13.9c-0.3,0.5-0.8,1-0.9,1.6c-0.4,3.7-2.6,6-5.3,8.3c-2.5,2.1-5.3,2.4-8.3,2.4
	c-36.9,0-73.8,0-110.6,0c-1.1,0-2.4-0.7-3.1,0.8c-0.3-0.3-0.5-0.6-0.8-0.9c-3.4-2.4-6.1-5.4-7.9-9.2c-0.1-0.6-0.2-1.2-0.2-1.8
	c0-0.5,0.1-1,0.1-1.5c0-68.3,0-136.6,0-204.9c0-1.1,0-2.2,0-4.2c-1,1.5-1.5,2.1-1.9,2.7c-1.2,0.7-2.5,1.2-3.6,2.1
	c-7.2,5.9-14.3,12-21.4,18c-3,2.3-6,4.7-9,7c-2.2,1.2-4.6,0.9-6.9,0.9c-0.1-0.3,0-0.7-0.2-1c-3.6-4.3-7.3-8.7-10.9-13
	c-1-2.3-1-4.7,0.1-7c2-2,4-4,6-6c4.3-1.6,6.6-5.6,10.3-8c3.5-2.3,6.5-5.2,9.7-7.8c4.3-3.4,8.6-6.8,12.9-10.2
	c5.3-4.3,10.6-8.7,15.9-13c1.8-1.4,3.7-2.6,5.5-4.1c4.3-3.6,8.4-7.2,12.7-10.8c3-2.4,5.9-4.7,8.9-7.1c6.1-4.9,12.2-9.8,18.3-14.7
	c2-1.6,3.9-3.4,5.8-5.1c0.9-0.7,1.9-1.4,2.8-2.1c0.4-0.3,0.7-0.6,1.1-1c8.7-7,17.4-14.1,26.1-21.1c2-1.6,3.9-3.2,5.9-4.9
	c7-5.7,14.1-11.4,21.1-17.1c4-3.3,7.9-6.6,11.9-9.9c5.4-4.4,10.7-8.7,16.1-13.1c0.2,0,0.4,0,0.5-0.1c11.7-9.2,10.3-10.1,21.6-13.8
	c1-0.1,2-0.1,2.9-0.2c1.3,0,2.7,0,4,0c2,0.3,4,0.7,6,1c4.1,1.4,7.5,3.8,10.8,6.4c2.4,1.9,4.8,3.8,7.3,5.7c3.5,3,7,6.1,10.6,9.1
	c2.2,1.8,4.7,3.4,7,5c3.2,3.7,7,6.7,11.2,9.1c1.1,1.2,2.2,2.5,3.5,3.5c5.2,4.3,10.4,8.5,15.6,12.7c0.9,0.7,1.9,1.1,2.9,1.7
	c1.7,1.4,3.4,2.8,5.1,4.2c0.5,0.6,1,1.3,1.6,1.8c6.5,5.3,12.9,10.7,19.4,15.9C329.6,87,331.7,88.3,333.7,89.7z M169.8,81.6
	c-4,3.3-8,6.6-11.9,9.9c-5,4-10,8.1-15.1,12.1c-1.7,1.3-3.4,2.5-5,3.9c-4.3,3.6-8.7,7.3-13,11c-0.4,0.3-0.7,0.6-1.1,1
	c-2.6,2.1-5.3,4.1-7.9,6.2c-6.6,5.3-13.1,10.6-19.7,16c-1.9,1.5-3.6,3.2-5.5,4.8c-0.6,0.4-1.2,0.8-1.9,1.2c-1.9,1.3-0.9,3.3-0.9,4.9
	c-0.1,60.8-0.1,121.7-0.1,182.5c0,9,0,18,0,27c0,0.9-0.6,2.1,0.9,2.4c9,0,18,0,27,0c9,0,18,0,27,0c8.9,0,17.8,0,27,0
	c0-9.2,0-18.1,0-27c0-9,0-18,0-27c0-9.3,0-18.7,0-28c0-9,0-18,0-27c0.3-1.7,0.6-3.3,0.9-5c3.2-6.4,8.3-9.5,15.6-9
	c3.8,0.3,7.6,0,11.5-0.1c9,0,18,0,27,0c9,0,18,0,27,0c4,0,7.9,0,11.9,0.1c5.7,0.2,10.8,1.9,13.9,7.2c0.2,0.4,0.7,0.6,1.1,0.9
	c0.4,1.3,0.7,2.6,1.1,3.9c0,0.6,0,1.3,0.1,1.9c0,9,0,18,0,27c0,9.3,0,18.7,0,28c0,9,0,18,0,27c0,9.2,0,18.4,0,27.8
	c9.3-0.2,18.1-0.5,27-0.7c0.3,0,0.7,0,1,0c8.7,0,17.3,0,26,0c9,0,18,0,27-0.1c2.1-1.1,0.9-3,0.9-4.4c0.1-62,0.1-124,0.1-186
	c0-8,0-16,0-24c0-0.8,0.6-2.1-0.9-2.4c-1-0.7-2-1.5-3-2.2c-1.6-1.4-3.1-2.9-4.7-4.2c-6.1-4.9-12.3-9.8-18.4-14.8
	c-3.3-2.6-6.6-5.3-9.9-7.9c-0.3-0.1-0.6-0.2-0.9-0.2c-0.7-0.9-1.3-1.9-2.2-2.6c-4.6-3.8-9.4-7.6-14-11.3
	c-5.6-4.6-11.3-9.3-16.9-13.9c-3.4-2.7-6.7-5.4-10.1-8.1c-1.2-1.1-2.3-2.2-3.5-3.2c-6.4-5.2-12.9-10.5-19.4-15.7
	c-2-1.5-3.9-2.9-5.9-4.4c-0.7-0.7-1.2-1.5-2-2.1c-6.1-5.1-12-10.3-18.3-15c-2.2-1.6-3.7-4.3-6.7-4.7c-0.9,0.4-1.8,0.7-2.5,1.2
	c-3.5,2.7-7,5.5-10.4,8.4c-4.8,4-9.5,8.1-14.2,12.2c-2.3,1.8-4.5,3.5-6.8,5.3c-1.8,1.3-3.7,2.6-5.4,4.1c-5,4.2-9.9,8.4-14.8,12.7
	C170.4,81.3,170.1,81.4,169.8,81.6z"/>
</svg>
