<?xml version="1.0" encoding="utf-8"?>
<!-- Generator: Adobe Illustrator 26.0.2, SVG Export Plug-In . SVG Version: 6.00 Build 0)  -->
<svg version="1.1" id="Calque_1" xmlns="http://www.w3.org/2000/svg" xmlns:xlink="http://www.w3.org/1999/xlink" x="0px" y="0px"
	 viewBox="0 0 450.7 366.8" style="enable-background:new 0 0 450.7 366.8;" xml:space="preserve">
<style type="text/css">
	.st0{fill:#ECF2F3;}
	.st1{fill:#606060;}
</style>
<path d="M443.9,290.7c0.6-2.9,1.1-5.7,1.2-8.4c0.1-5.2-0.1-10.5-0.3-15.6c-0.1-2.7-0.2-5.4-0.3-8.1c-0.2-6.8-2.7-13.1-7.7-19.3
	c-1.8-2.2-3.8-4.1-6-6.2c-0.9-0.8-1.8-1.7-2.7-2.5l-3.5-1.7c-1.7-0.1-3.6-1-4.7-4c-1.5-4.2-3-8.4-4.6-12.6l-9.7-27l-5.3-10.8
	l-7.9-10.3l-13.9-11.7c-1.3-0.6-2.5-1.2-3.8-1.9c-3-1.5-5.8-2.9-8.8-4c-8.7-3.2-16.8-4.6-24.6-4.3c-1.2,0-2.4,0-3.5-0.1
	c-0.5,0-0.9-0.1-1.4-0.1l-44.2,0l-22.6,0l-2.4,0.1c-1.8,0-3.6,0.1-5.4,0.2c-12.3,0.5-23,3.6-32.7,9.6c-0.7,0.4-1.4,0.7-2,1
	c-0.1,0.1-0.3,0.1-0.4,0.2l-13.4,11.2l-7.2,9l-5.6,11.8c-0.3,0.9-0.6,1.8-0.9,2.7c-0.7,2.1-1.4,4.3-2.2,6.5
	c-1.2,3.2-2.4,6.4-3.6,9.5c-0.5,1.3-1,2.7-1.6,4c-0.5,1.3-0.9,2.7-1.4,4.1c-1.6,4.5-3.2,9.2-4.9,13.8c-0.6,1.5-1.9,2.1-2.9,2.6
	c-0.2,0.1-0.5,0.2-0.7,0.3l-0.2,0.1l-4,2c-0.5,0.4-0.9,0.8-1.4,1.3c-1.2,1.1-2.4,2.2-3.6,3.3c-7.7,6.8-11.7,15.9-12.2,27.7
	c-0.1,2.4-0.1,4.9-0.1,7.3c0,1.1,0,2.2,0,3.3c0.1,1.5,0.2,3,0.2,4.6c0.1,3.3,0.3,6.7,0.7,10c1.2,9.2,5.5,16.7,13.1,23l0.9,0.8
	l0,27.4c0.2,0.8,0.3,1.5,0.5,2.3c0.4,1.9,0.8,3.7,1.3,5.4c0.9,3.3,3.3,5.7,5.9,8.3c1,0.5,2,1,3,1.5c2.2,1.2,4.3,2.3,6.2,2.4
	c1,0.1,2,0.1,3,0.2c7.3,0.4,14.8,0.9,21.9-0.8l6.1-3.4c4.4-4.1,6.9-9.2,7.5-15.8l0-21.6l2.4-2.5l13.3,0l45.2,0l44.3,0l35.9,0
	l2.3,2.5l0,21.3c0,0.1,0.1,0.2,0.1,0.4c0.3,0.7,0.6,1.6,0.6,2.5c0.3,4.8,2.4,9,6.9,13.1l6,3.5c0.8,0.1,1.6,0.2,2.4,0.3
	c2.2,0.2,4.5,0.5,6.7,0.6c1.1,0.1,2.3,0,3.5,0c1.5,0,3-0.1,4.6,0.1c5.9,0.5,11.4-0.8,16.8-4.1c0.5-0.7,1-1.3,1.5-2
	c1.4-1.8,2.7-3.5,3.9-5.2c1.6-2.4,2.4-5.2,2.4-8.8l0-28l1-0.8c4.6-3.6,8.4-8.8,11.9-16.3C443.4,293.2,443.6,291.9,443.9,290.7z
	 M237.3,287.5l-0.7,0.5c-3.2,2.1-6.7,4.2-11.2,4c-1.5,0-2.9,0.1-4.4,0.1c-1.9,0-3.9,0.1-5.9,0.1c-1.7,0-3.5,0-5.2-0.1
	c-2.1-0.1-4-0.9-5.9-1.7c-0.7-0.3-1.4-0.6-2.1-0.8l-0.4-0.2c-6.2-3.5-9.2-8.9-8.6-15.6c-0.9-6.3,1.6-11.8,7.3-16.3
	c0.8-0.6,1.6-0.9,2.3-1c0.1,0,0.2-0.1,0.4-0.1c6-3.3,12.3-3,18.5,0.8c1.5,0.9,2.8,2,4.1,3.1c0.5,0.4,1.1,0.9,1.6,1.3
	c4.1,2.8,6.8,6.1,8.4,10.1l4.2,9.5L237.3,287.5z M314,230.9l-21.7,0l-22.6,0l-45.4,0l1-3.2c2.6-8.4,5.4-16.2,7.8-22.7
	c1.5-6.6,5.4-12.1,11.4-16.3c8-6.9,17.7-7.2,25.2-6.8l22.6,0l21.6,0l22.5,0c6.2-0.7,12.4,0.2,18.2,2.4c1.4,0.6,2.6,1.4,3.7,2.2
	c0.4,0.3,0.9,0.6,1.3,0.9c6.9,4,11.6,10.2,14,18.6l8.4,24.9l-6.8,0c-2.5,0-4.9,0-7.3,0c-3.3,0-6.5,0-9.8-0.1L314,230.9z
	 M413.5,273.7c0.1,7.9-3.2,13.3-10,16.3l-0.3,0.1c-0.6,0.2-1.2,0.4-1.8,0.6c-1.5,0.6-3.2,1.2-5,1.3c-1.6,0.1-3.2,0.1-4.9,0.1
	c-2.1,0-4.2,0-6.3-0.1c-1.4,0-2.9-0.1-4.3-0.1c-3.8,0.2-6.8-1.3-9.5-2.7c-0.4-0.2-0.9-0.5-1.3-0.7l-0.6-0.3l-0.4-0.6
	c-3.9-6-1.1-11.2,1-15.1c1.6-4.2,4.5-7.8,9.1-11.2c5.8-5.6,11.5-7.8,18-7.2c2.4,0.2,5.5,0.6,8.1,3
	C411.3,260.5,414,266.1,413.5,273.7z"/>
<path class="st0" d="M431.7,388.8c-0.3-0.3-0.6-0.7-1-1C431.1,388.1,431.4,388.5,431.7,388.8z"/>
<path class="st1" d="M292.5,121c-0.8-2.5-2.2-4.9-4.2-7.4c-1.8-2.2-3.8-4.2-5.9-6.3c-0.9-0.9-1.7-1.7-2.6-2.6l-4.9-3.2
	c-3.2-0.4-4.3-3.3-4.7-4.4c-1.5-4.1-3-8.3-4.5-12.4l-1.1-3.1l-1.1,0l-0.4-1.9c-0.1-0.5-0.2-1.1-0.3-1.6c-0.2-1.1-0.4-2.1-0.7-3
	c-1.3-4-2.7-8.1-4-12.1l-1-3l-0.8,0l-2.5-6.2l-2.7-6.2l-1.3-1.7c-2.3-2.8-4.6-5.7-6.8-8.5c-0.2-0.3-0.4-0.6-0.5-0.9l-1.2-0.6
	l-0.3-0.4c-2.8-3.7-5.8-6.2-9.3-7.7l-0.8-0.3l-1-1.8c-0.2-0.1-0.5-0.2-0.7-0.4c-1-0.5-2.1-1-3.2-1.6c-4.8-2.6-10.6-5.4-17.1-6.1
	l-0.2,0l-0.2-0.1c-4.7-1.5-9.2-2-13.7-1.8c-1.7,0.1-3.4,0.1-5,0.1c-0.7,0-1.4,0-2.2,0l-66.9,0c-1.3,0-2.6,0-3.8-0.1
	c-3-0.1-5.8-0.1-8.7,0.1c-1.9,0.1-3.8,0.6-5.8,1.1c-0.9,0.2-1.9,0.5-2.8,0.6l-0.2,0c-7.2,0.8-13.4,3.9-19.2,7.1
	c-0.4,0.2-0.8,0.4-1.2,0.6l0,1l-4.3,1.6l-1.4,0.7l-8.1,8l-8.1,10.9l-3.8,9.2l-1.6,3.3l-0.2,0c0,0.1-0.1,0.2-0.1,0.3
	c-0.6,1.7-1.3,3.5-2,5.2c-1,2.6-2,5.3-3,7.9c-0.5,1.3-0.8,2.7-1.1,4.2c-0.2,0.7-0.3,1.4-0.5,2.1L44,81.5l-1.5,0
	c-0.4,1.2-0.8,2.3-1.2,3.5c-1.1,3.4-2.3,6.9-3.3,10.4c-0.8,2.8-2.5,4.7-5,5.8l-4.2,2.5c-0.1,0.1-0.1,0.1-0.1,0.2
	c-0.4,0.5-0.9,1.1-1.6,1.6c-5.4,3.6-9.4,8.9-12.6,16.8c0,0.1,0,0.3,0,0.4c0,0.3,0,0.5,0,0.8l-0.2,2.3l-1,0c0,0.1,0,0.3-0.1,0.4
	c-0.3,1.9-0.5,3.6-0.5,5.4c-0.1,3.3-0.1,6.8-0.1,10.1c0,1.4,0,2.8,0,4.3c0,1.4,0,2.7,0,4.1c0,3.2,0,6.4-0.1,9.6
	c-0.1,2.8,0.5,5.4,1.7,7.8l0.1,0.3l0.1,0.3c1.6,6.5,6.2,11.2,11.5,16.2l0.8,0.7v2.3l0.1,0l0,27.6c0.6,4.7,2.4,8.4,5.6,11.2l0.8,0.7
	l0,0.9c4.1,3.4,8.7,4.9,13.9,4.5c1.1-0.1,2.3-0.1,3.4,0l0,0l2.9,0c0.8,0,1.5,0,2.3,0c1.7,0,3.5,0,5.3,0c4.6,0.2,8.8-1,12.6-3.5
	l0-1.5l1.9-0.5c0.2,0,0.3-0.1,0.5-0.1c4.1-4.8,5.6-8.8,5.2-13.3l-0.3-2.7l1.1,0l0-22.7l13.3,0.1l0-0.1l28.3,0l0,0.1l22.8-0.1l0,0.1
	l21.5-0.1l0,0.1l11.5-0.1c0.7-3.3,2.2-6.6,4.4-9.8c0.7-4.2,2.8-7.6,5-10.7c4.2-8,9.9-15.1,17.6-21.5l0-1.4l3.9-1.5
	c0.4-0.3,0.7-0.7,1.1-1c1.1-1.1,2.3-2.1,3.7-3.1c3.3-2.3,6.6-4.4,10-6.3c1.3-0.7,2.7-1.2,4-1.6c0,0,0,0,0,0l0.1-0.8l1.5-0.5
	c0.8-0.3,1.6-0.6,2.4-0.9c1.7-0.6,3.5-1.3,5.2-2c3.8-1.5,8.3-3,13.3-3l3.9-1.7l4.2-0.1l18.7-1.1l0,0.3L292.5,121z M87.9,159.6
	c-1.7,2.2-4.5,5.1-9.2,4.9c-0.1,0-0.2,0-0.3,0l0,1l-2.5-0.1c-2-0.1-4.1,0-6.2,0c-5.6,0.1-11.5,0.3-17.2-2.1l-1.5-0.6l0-0.9
	c-4-2-6.5-5.7-7.5-11.2c-0.2-1.1-0.2-2.1-0.1-3l-0.1-1.4c-0.5-5.9,1.6-11,6.1-15.1c0.5-0.5,1.1-0.8,1.7-1l0-1l1.8-0.5
	c0.2,0,0.3-0.1,0.5-0.1c0.4-0.1,0.9-0.3,1.5-0.4c0.7-0.1,1.5-0.3,2.2-0.5c2-0.5,4.3-1.1,6.6-0.6c2.5,0.5,4.7,1.6,6.8,2.6
	c1,0.5,1.9,1,2.8,1.4c0.3,0.1,0.7,0.2,1.2,0.3c0.3,0.1,0.6,0.1,1,0.2l1.9,0.4l0.1,1.5l1.7,0.1l0.4,3l6.6,6.7l0,0.6l0.4,0l0.5,1.5
	c0.2,0.6,0.4,1.2,0.6,1.8c0.4,1.2,0.7,2.4,1.2,3.4C90.4,153.6,90.1,156.8,87.9,159.6z M231.2,101.8l-0.1,2.4l-6.1-0.1l-12.4,0
	l0.1,0.1l-21.8-0.1l0,0.1l-22.6-0.1l0,0.1l-28.8,0l0-0.1l-22.6,0.1l0-0.1l-21.8,0.1l0-0.1l-20.6,0L83,79.7c0-0.2,0-0.3,0-0.5l0-0.5
	l0.2-0.5c2.2-6.6,5.6-11.7,10.2-15.7c0.8-0.7,1.6-1.1,2.4-1.4c0.2-0.1,0.4-0.2,0.6-0.3c5.1-4.2,11.2-6.3,18.1-6c0.9,0,1.8,0,2.7,0
	l0-0.1l29.3,0l0,0.1l15.1,0l0-0.1l29.3,0l0,0.1l2.5,0l9,1l7.8,3.3l0.7,1.5c0.2,0.1,0.4,0.1,0.5,0.2c7.4,4.2,11.5,10.2,12.4,17.9
	l0.9,0.8l1,5.4l2.7,8.2c0.2,0.5,0.6,1.1,0.9,1.7C230.1,96.8,231.3,99,231.2,101.8z"/>
</svg>
