<?xml version="1.0" encoding="utf-8"?>
<!-- Generator: Adobe Illustrator 25.4.1, SVG Export Plug-In . SVG Version: 6.00 Build 0)  -->
<svg version="1.1" id="Calque_1" xmlns="http://www.w3.org/2000/svg" xmlns:xlink="http://www.w3.org/1999/xlink" x="0px" y="0px"
	 viewBox="0 0 16 16" style="enable-background:new 0 0 16 16;" xml:space="preserve">
<style type="text/css">
	.st0{fill:url(#SVGID_1_);}
	.st1{fill:url(#SVGID_00000170266410991300572640000003389340754864498324_);}
	.st2{fill:#020203;}
	.st3{font-family:'Airstrike';}
	.st4{font-size:2.9559px;}
</style>
<g>
	
		<linearGradient id="SVGID_1_" gradientUnits="userSpaceOnUse" x1="3.0736" y1="134.6816" x2="14.958" y2="134.6816" gradientTransform="matrix(1 0 0 -1 0 142)">
		<stop  offset="0" style="stop-color:#F6A220"/>
		<stop  offset="1" style="stop-color:#EF7725"/>
	</linearGradient>
	<path class="st0" d="M14.4,8.2c-1.3-0.7-2.7-0.9-4.1-0.8C9,7.4,7.6,7.3,6.2,7.2C5.6,7.2,5,7.1,4.4,6.8c1.7-0.6,3.4-0.4,5,0.1
		C9.5,7,9.7,7.1,9.8,7.1c0,0,0-0.1,0-0.1C9.8,7,9.7,6.9,9.6,6.9c-2.2-1.2-4.3-1-6.6-0.2c0.1,0.1,0.1,0.1,0.1,0.1
		c1.7,0.7,3.5,1.2,5.4,1c1-0.1,2.1-0.2,3.1-0.2c1,0,1.9,0.3,2.7,0.7c0.2,0.1,0.3,0.2,0.5,0.2c0,0,0-0.1,0.1-0.1
		C14.8,8.4,14.6,8.3,14.4,8.2z"/>
	
		<linearGradient id="SVGID_00000175294593754287775700000005214636544747777702_" gradientUnits="userSpaceOnUse" x1="1.042" y1="133.7647" x2="5.6441" y2="133.7647" gradientTransform="matrix(1 0 0 -1 0 142)">
		<stop  offset="0" style="stop-color:#F6A220"/>
		<stop  offset="1" style="stop-color:#EF7725"/>
	</linearGradient>
	<path style="fill:url(#SVGID_00000175294593754287775700000005214636544747777702_);" d="M5.1,7.8C4.9,7.8,4.7,7.7,4.5,7.6
		C3.9,7.4,3.2,7.2,2.6,7C2.2,6.9,1.8,6.8,1.4,6.7C1.3,6.7,1.2,6.6,1.1,6.6c0,0,0,0.1,0,0.1c0,0,0.1,0.1,0.1,0.1
		c0.2,0.2,0.4,0.3,0.6,0.5c-0.4,0.4-0.4,2-0.3,2.6C2,8.7,2.1,7.4,3.2,7.6C3.9,7.7,4.5,7.9,5.1,8c0.2,0,0.3,0,0.5,0.1l0,0l0,0
		C5.4,8,5.3,7.9,5.1,7.8z"/>
</g>
<text transform="matrix(1 0 0 1 1.9458 9.9887)" class="st2 st3 st4">EZYCAR</text>
</svg>
