<svg id="Calque_1" data-name="Calque 1" xmlns="http://www.w3.org/2000/svg" viewBox="0 0 425.72 449.37"><defs><style>.cls-1{fill:#030303;}.cls-2{fill:#e30613;stroke:#f7f7f7;stroke-width:9px;}</style></defs><path class="cls-1" d="M256.21,188.22c-3.39,5.23-6.66,10.54-10.19,15.67-6.48,9.42-14.83,16.57-25.76,20.4a29.58,29.58,0,0,1-4.8,1.29c-12,2.06-19.07-4.34-18.14-16.43,1-13.25,6-25.11,12.9-36.29a23.11,23.11,0,0,0,3.07-6.32c-5.75,2.61-11.56,5.11-17.17,8-.88.45-1,2.65-1.21,4.07-1.91,11-2.85,22.21-5.86,32.87-4.85,17.12-15.75,29.24-33.88,32.92-13,2.64-22.27-2.82-27.41-15.17-1.58-3.8-2.84-7.73-4.49-12.29-4.86,4-9.65,7.78-14.21,11.8-17.87,15.76-35.81,31.46-53.41,47.51-5.38,4.9-10.9,5.92-17.41,3.78-7.61-2.5-14.17-6.61-18.92-13.17-3.55-4.9-2.46-7.81.57-13a99.9,99.9,0,0,0,9.82-22.1c9.07-31.39,14.32-63.6,18.06-96,3.58-30.92,5.94-62,8.76-93a89.53,89.53,0,0,0,.25-11c-.1-3.18,1.08-5,4.24-5.7C70.8,24,80.54,23.86,90.12,27c7.93,2.58,11.4,9.47,8.69,18C81.56,99.38,72.25,155.48,62.53,211.49c-1.9,10.9-2.7,22-4,33l1.78,1.13L121,199.26c-3.25-3.84-5.63-7-8.4-9.83-3.08-3.1-3-5.9-.42-9.2,8.47-10.66,16.84-21.4,25.25-32.1,11.43-14.52,30.41-18.29,43.72-8.09,3.94,3,6.71,7.65,9.7,11.77,1.41,1.95,2.07,4.44,3.46,7.55,18.73-6.48,37.23-12.72,55.61-19.31,8.24-3,11.33-2.68,16,4.66,3.41,5.31,7.29,8.27,13.85,7.37,4-.55,5.86,2,5.5,5.81-.77,8.28-1.73,16.54-2.6,24.81-.19,1.82-.32,3.65-.6,6.83,5-4.28,9.27-7.75,13.3-11.51,7.55-7,14.79-14.43,22.47-21.33a63.84,63.84,0,0,1,11.81-8.26c13-7.17,26-2.88,32.59,10.47,6.06,12.33,5.65,25.15,2.48,38a67.87,67.87,0,0,1-20.28,34.27c-9,8.34-19.93,11.14-31.89,9.67-7.45-.92-12.73-5.32-16.34-11.83a71.12,71.12,0,0,1-9.05-30.63c-3.87.58-5.66,2.13-6.15,6.23-4.46,37.36-8.86,74.73-13.93,112-3,22.38-6.4,44.86-15,66-5.72,14.07-13.26,27.25-24.71,37.64s-24.69,12-37.48,3.83a31.76,31.76,0,0,1-9.76-10.37,143.54,143.54,0,0,1-19.63-60.63c-.88-9.65,2.35-18.73,6.14-27.49,9.59-22.2,23.56-41.67,38.51-60.39,13.61-17,27.46-34,42.29-49.94C254.93,207.28,256.83,198.61,256.21,188.22Zm-2.08,34.64a10.33,10.33,0,0,0-1.6,1.34c-15.36,22.92-30.94,45.7-45.94,68.85C198.9,304.93,191.69,317.62,191,332c-.69,14,.56,28.22,1.87,42.26,1,10.73,3.44,21.38,9.12,30.82,5,8.38,10.43,8.51,16,.57a32.23,32.23,0,0,0,4.45-7.74c4-11.59,8.4-23.11,11.4-35,8.06-31.83,12.24-64.36,16-96.92C251.5,251.86,252.68,237.67,254.13,222.86Zm59.81-26-1.38.29c1.95,8,3.32,16.19,6,23.91,2,5.82,7,7.64,12,4.32A42.41,42.41,0,0,0,343,213c8-12.8,9-26.46,2-40.23-2.53-5-5.74-5.9-10.64-3.29-4.1,2.18-8.05,4.64-12.15,6.81-5.51,2.91-8.46,7.28-8.34,13.6C314,192.16,313.94,194.49,313.94,196.82ZM181.52,178.43c-10.72,3.28-20.39,6.19-30,9.26-1,.32-2.49,1.54-2.49,2.35,0,10.63-.48,21.34.69,31.86,1,9,8.47,11.07,15.67,5.26a22.94,22.94,0,0,0,4.46-4.67C178.72,209.5,181.19,194.81,181.52,178.43Zm72.57-16.92c-2,.75-2.59,1-3.17,1.2C234.37,169.59,225.25,183,219.15,199c-1.64,4.32-3.47,9.27.85,12.34,4.52,3.19,8.55-.76,11.74-3.74,9.41-8.78,15.55-19.71,19.35-31.91C252.4,171.49,252.94,167.05,254.09,161.51Zm-105.41,9,30.62-8.91a64.92,64.92,0,0,0-2.17-6.52c-2-4.26-5.87-5.69-9.88-3.3C159.89,156.18,154,162.16,148.68,170.52Z"/><path class="cls-2" d="M389,244.72c-17.22,0-30.13-11.23-30.28-26.28-.15-15.73,13.82-32.29,27.17-32.19,17.61.14,29.83,13.5,29.83,32.64C415.73,236,406.68,244.74,389,244.72Z"/></svg>