<?xml version="1.0" encoding="utf-8"?>
<!-- Generator: Adobe Illustrator 26.0.2, SVG Export Plug-In . SVG Version: 6.00 Build 0)  -->
<svg version="1.1" id="Calque_1" xmlns="http://www.w3.org/2000/svg" xmlns:xlink="http://www.w3.org/1999/xlink" x="0px" y="0px"
	 viewBox="0 0 400 139.9" style="enable-background:new 0 0 400 139.9;" xml:space="preserve">
<style type="text/css">
	.st0{fill:url(#SVGID_1_);}
	.st1{fill:url(#SVGID_00000029768346603901804220000015467224855593096634_);}
	.st2{fill:#FFFFFF;}
	.st3{font-family:'RaceSportRegular';}
	.st4{font-size:50.4146px;}
</style>
<g>
	
		<linearGradient id="SVGID_1_" gradientUnits="userSpaceOnUse" x1="75.1" y1="94.2397" x2="382.8" y2="94.2397" gradientTransform="matrix(1 0 0 -1 0 142)">
		<stop  offset="0" style="stop-color:#F6A220"/>
		<stop  offset="1" style="stop-color:#EF7725"/>
	</linearGradient>
	<path class="st0" d="M368.9,70.2C335.2,52.7,299.9,47.8,263,49c-35.7,1.1-71.5-1.3-107.2-3.3c-15.8-0.9-31.7-4-46.5-11.8
		C153,18,196.1,22.5,239,37.7c3.5,1.7,7.1,3.4,10.6,5.1c0.4-1,0.8-2,1.2-2.9c-1.9-1.1-3.9-2.3-5.8-3.4
		C189.1,4.3,133.1,9.8,75.1,32.6c2.3,2.4,2.8,3.4,3.5,3.7c45.1,19.4,91.2,30.6,139.8,25.8c26.8-2.6,53.7-3.9,80.6-4.7
		c24.6-0.7,48,6.5,70.4,17.8c4,2.1,8,4.2,12,6.4c0.5-1.1,0.9-2.3,1.4-3.4C378.3,75.5,373.6,72.8,368.9,70.2z"/>
	
		<linearGradient id="SVGID_00000021081805212405383450000013102478497643780779_" gradientUnits="userSpaceOnUse" x1="22.5" y1="70.5" x2="141.6537" y2="70.5" gradientTransform="matrix(1 0 0 -1 0 142)">
		<stop  offset="0" style="stop-color:#F6A220"/>
		<stop  offset="1" style="stop-color:#EF7725"/>
	</linearGradient>
	<path style="fill:url(#SVGID_00000021081805212405383450000013102478497643780779_);" d="M127.8,60.9c-5.5-1.9-10.9-3.9-16.4-5.6
		c-16.1-5-32.3-10.1-48.5-14.8c-10.2-2.9-20.6-5.1-30.8-7.6c-2.9-1.3-5.8-2.5-8.7-3.8c-0.3,0.6-0.6,1.3-0.9,1.9
		c0.6,0.8,1.3,1.6,1.9,2.4C29.7,37.8,35,42,40.8,46.6c-9.6,10.3-10.1,52.2-8.9,67.3c14.6-30.2,17.7-63.8,47-59.2
		c16.5,2.6,32.8,7.2,49.1,10.9c4.3,0.5,8.5,1,12.8,1.4l0.7,0.7l-0.6-0.9C136.6,64.9,132.2,62.9,127.8,60.9z"/>
</g>
<text transform="matrix(1.1445 0 0 1 54.2231 112.1953)" class="st2 st3 st4">EZYCAR</text>
</svg>
